<svg xmlns="http://www.w3.org/2000/svg" xmlns:xlink="http://www.w3.org/1999/xlink" width="500" zoomAndPan="magnify" viewBox="0 0 375 374.999991" height="500" preserveAspectRatio="xMidYMid meet" version="1.0"><path fill="#050505" d="M 112.972656 152.496094 C 112.800781 152.667969 112.671875 168.835938 112.671875 188.445312 L 112.671875 224.054688 L 114.820312 224.054688 L 114.734375 188.273438 C 114.605469 156.320312 114.519531 152.453125 113.960938 152.324219 C 113.574219 152.28125 113.144531 152.324219 112.972656 152.496094 Z M 112.972656 152.496094 " fill-opacity="1" fill-rule="nonzero"/><path fill="#050505" d="M 286.535156 163.890625 C 285.203125 164.277344 283.484375 166.082031 282.75 167.933594 C 282.535156 168.40625 282.277344 171.589844 282.148438 175.027344 L 281.890625 181.265625 L 280.730469 181.394531 C 279.613281 181.523438 279.527344 181.695312 279.527344 183.457031 C 279.527344 185.265625 279.570312 185.351562 280.816406 185.351562 L 282.105469 185.351562 L 282.105469 205.90625 L 284.085938 206.078125 C 285.160156 206.164062 286.105469 206.121094 286.234375 206.035156 C 286.320312 205.949219 286.40625 201.21875 286.40625 195.585938 L 286.40625 185.351562 L 291.996094 185.351562 L 291.996094 181.523438 L 289.332031 181.394531 L 286.621094 181.265625 L 286.492188 175.632812 C 286.40625 170.46875 286.449219 169.910156 287.265625 168.878906 C 288.300781 167.589844 289.675781 167.375 290.921875 168.320312 C 291.695312 168.878906 291.867188 168.792969 292.773438 167.417969 C 294.019531 165.609375 293.761719 164.878906 291.78125 164.0625 C 290.148438 163.332031 288.601562 163.289062 286.535156 163.890625 Z M 286.535156 163.890625 " fill-opacity="1" fill-rule="nonzero"/><path fill="#050505" d="M 170.597656 164.105469 C 170.425781 164.277344 170.296875 173.78125 170.296875 185.222656 L 170.296875 205.992188 L 174.511719 205.992188 L 174.683594 197.476562 C 174.8125 189.21875 174.855469 188.875 175.886719 187.371094 C 177.21875 185.4375 178.335938 184.917969 181.089844 184.917969 C 185.820312 184.917969 186.207031 185.824219 186.207031 197.175781 L 186.207031 205.992188 L 190.550781 205.992188 L 190.421875 196.1875 C 190.292969 187.671875 190.207031 186.210938 189.476562 184.789062 C 188.445312 182.683594 186.765625 181.566406 183.972656 180.964844 C 180.960938 180.359375 178.597656 181.007812 176.617188 182.984375 C 175.800781 183.800781 174.984375 184.488281 174.855469 184.488281 C 174.726562 184.488281 174.554688 179.886719 174.511719 174.253906 L 174.382812 164.0625 L 172.660156 163.933594 C 171.671875 163.847656 170.769531 163.933594 170.597656 164.105469 Z M 170.597656 164.105469 " fill-opacity="1" fill-rule="nonzero"/><path fill="#050505" d="M 239.101562 184.875 L 239.101562 205.992188 L 243.359375 205.992188 L 243.617188 187.929688 L 244.992188 186.554688 C 246.199219 185.351562 246.714844 185.132812 249.078125 185.003906 C 251.359375 184.875 251.960938 184.960938 252.949219 185.738281 C 254.671875 187.113281 255.015625 189.046875 255.015625 197.90625 L 255.015625 205.992188 L 259.359375 205.992188 L 259.226562 196.617188 C 259.097656 187.671875 259.054688 187.199219 258.023438 185.132812 C 256.777344 182.640625 254.929688 181.265625 252.261719 180.878906 C 249.207031 180.40625 247.402344 180.964844 245.296875 182.941406 L 243.402344 184.746094 L 243.316406 174.425781 L 243.1875 164.0625 L 241.167969 163.933594 L 239.101562 163.804688 Z M 239.101562 184.875 " fill-opacity="1" fill-rule="nonzero"/><path fill="#050505" d="M 146.945312 167.761719 C 143.546875 168.234375 138.945312 170.726562 136.539062 173.4375 C 135.460938 174.597656 133.957031 176.835938 133.183594 178.425781 C 131.851562 181.179688 131.808594 181.4375 131.808594 186.855469 C 131.808594 192.230469 131.851562 192.574219 133.140625 195.242188 C 135.722656 200.660156 140.753906 204.832031 146.128906 205.949219 C 151.289062 207.023438 156.449219 206.292969 159.976562 203.925781 L 162.339844 202.335938 L 162.46875 199.628906 C 162.554688 198.164062 162.511719 196.960938 162.382812 196.960938 C 162.253906 196.960938 161.136719 197.734375 159.890625 198.679688 C 156.621094 201.132812 154.210938 201.820312 149.695312 201.605469 C 146.34375 201.433594 145.742188 201.304688 143.417969 199.886719 C 138.300781 196.789062 136.023438 192.230469 136.410156 185.824219 C 136.667969 181.652344 138.042969 178.511719 140.796875 175.976562 C 144.0625 172.964844 145.871094 172.234375 150.300781 172.234375 C 154.640625 172.234375 156.75 172.878906 160.105469 175.285156 C 161.222656 176.105469 162.210938 176.75 162.339844 176.75 C 162.46875 176.75 162.554688 175.632812 162.554688 174.253906 C 162.554688 171.246094 162.253906 170.902344 158.253906 169.09375 C 155.117188 167.632812 151.117188 167.203125 146.945312 167.761719 Z M 146.945312 167.761719 " fill-opacity="1" fill-rule="nonzero"/><path fill="#050505" d="M 199.753906 168.835938 C 199.324219 169.308594 199.109375 170.082031 199.195312 171.117188 C 199.496094 174.640625 204.699219 174.296875 204.699219 170.726562 C 204.699219 170.039062 204.398438 169.179688 204.011719 168.835938 C 203.152344 167.933594 200.65625 167.976562 199.753906 168.835938 Z M 199.753906 168.835938 " fill-opacity="1" fill-rule="nonzero"/><path fill="#050505" d="M 268.085938 169.222656 C 267.183594 170.597656 267.570312 172.191406 269.035156 173.179688 C 270.453125 174.082031 272.214844 173.523438 272.988281 171.933594 C 273.460938 170.945312 273.417969 170.554688 272.859375 169.4375 C 272.300781 168.320312 271.957031 168.148438 270.496094 168.148438 C 269.164062 168.148438 268.644531 168.363281 268.085938 169.222656 Z M 268.085938 169.222656 " fill-opacity="1" fill-rule="nonzero"/><path fill="#050505" d="M 75.644531 172.148438 C 72.890625 173.996094 72.289062 177.179688 74.183594 179.929688 C 74.871094 180.964844 75.257812 182.125 75.257812 183.199219 L 75.257812 184.917969 L 71.085938 184.960938 C 68.761719 184.960938 66.269531 185.222656 65.496094 185.480469 C 62.914062 186.425781 60.464844 188.574219 59.171875 190.941406 C 58.054688 192.960938 57.925781 193.734375 57.882812 196.917969 L 57.839844 200.617188 L 63.859375 200.617188 L 64.074219 198.59375 C 64.464844 195.027344 66.527344 193.777344 68.589844 195.886719 C 69.625 196.875 69.667969 197.175781 69.667969 202.121094 L 69.667969 207.28125 L 86.78125 207.28125 L 86.953125 201.863281 C 87.082031 196.746094 87.125 196.402344 88.117188 195.585938 C 88.847656 195.027344 89.535156 194.855469 90.265625 195.027344 C 91.898438 195.414062 92.199219 195.886719 92.457031 198.378906 L 92.671875 200.617188 L 99.125 200.617188 L 99.082031 196.960938 C 99.082031 193.863281 98.910156 192.960938 97.921875 191.113281 C 95.46875 186.339844 92.328125 184.917969 84.203125 184.917969 L 78.699219 184.917969 L 78.699219 182.125 C 78.699219 179.972656 78.570312 179.328125 78.050781 179.328125 C 77.191406 179.328125 75.6875 177.609375 75.6875 176.664062 C 75.6875 175.5 77.234375 174.167969 78.613281 174.167969 C 79.859375 174.167969 81.277344 175.285156 81.277344 176.234375 C 81.277344 176.535156 81.878906 176.75 82.566406 176.75 C 83.601562 176.75 83.859375 176.578125 83.859375 175.890625 C 83.859375 172.105469 78.957031 169.910156 75.644531 172.148438 Z M 82.136719 191.585938 L 78.480469 195.242188 L 75.171875 191.929688 C 73.320312 190.082031 71.816406 188.445312 71.816406 188.273438 C 71.816406 188.058594 74.957031 187.929688 78.785156 187.929688 L 85.792969 187.929688 Z M 82.136719 191.585938 " fill-opacity="1" fill-rule="nonzero"/><path fill="#050505" d="M 217.601562 181.910156 C 214.332031 183.757812 213.128906 185.003906 211.796875 188.015625 C 210.761719 190.339844 210.632812 191.027344 210.804688 194.164062 C 210.933594 196.960938 211.234375 198.078125 212.140625 199.628906 C 215.535156 205.433594 221.945312 207.710938 228.4375 205.476562 C 231.234375 204.488281 232.222656 203.28125 232.222656 200.832031 C 232.222656 199.671875 232.136719 198.679688 232.007812 198.679688 C 231.878906 198.679688 231.320312 199.066406 230.804688 199.585938 C 227.492188 202.679688 221.601562 203.195312 218.246094 200.617188 C 214.117188 197.519531 213.988281 189.910156 217.945312 186.554688 C 221.515625 183.542969 227.320312 183.929688 231.0625 187.414062 L 232.222656 188.53125 L 232.222656 186.125 C 232.222656 183.542969 231.878906 183.027344 229.210938 181.652344 C 228.179688 181.136719 226.460938 180.835938 223.835938 180.75 C 220.179688 180.578125 219.835938 180.664062 217.601562 181.910156 Z M 217.601562 181.910156 " fill-opacity="1" fill-rule="nonzero"/><path fill="#050505" d="M 199.839844 181.351562 C 199.667969 181.480469 199.539062 187.113281 199.539062 193.820312 L 199.539062 205.992188 L 203.839844 205.992188 L 203.839844 181.050781 L 201.988281 181.050781 C 200.957031 181.050781 199.96875 181.179688 199.839844 181.351562 Z M 199.839844 181.351562 " fill-opacity="1" fill-rule="nonzero"/><path fill="#050505" d="M 268.34375 193.476562 L 268.34375 205.992188 L 272.644531 205.992188 L 272.558594 193.605469 L 272.429688 181.265625 L 270.410156 181.136719 L 268.34375 181.007812 Z M 268.34375 193.476562 " fill-opacity="1" fill-rule="nonzero"/><path fill="#050505" d="M 293.503906 182.339844 C 293.675781 182.8125 295.695312 187.457031 298.0625 192.660156 C 300.382812 197.863281 302.320312 202.378906 302.320312 202.679688 C 302.320312 203.023438 300.855469 206.507812 299.09375 210.507812 C 297.328125 214.464844 295.867188 217.773438 295.867188 217.859375 C 295.867188 217.945312 296.941406 218.03125 298.277344 218.03125 C 300.597656 218.03125 300.640625 217.988281 301.328125 216.398438 C 301.671875 215.539062 304.167969 209.863281 306.832031 203.839844 C 309.5 197.820312 312.769531 190.425781 314.101562 187.414062 C 315.433594 184.402344 316.511719 181.867188 316.511719 181.738281 C 316.511719 181.609375 315.476562 181.480469 314.1875 181.480469 L 311.910156 181.480469 L 310.359375 185.4375 C 307.179688 193.605469 305.457031 197.5625 305.070312 197.691406 C 304.855469 197.734375 303.222656 194.121094 301.457031 189.648438 L 298.234375 181.480469 L 295.738281 181.480469 C 293.417969 181.480469 293.246094 181.566406 293.503906 182.339844 Z M 293.503906 182.339844 " fill-opacity="1" fill-rule="nonzero"/></svg>