<svg xmlns="http://www.w3.org/2000/svg" xmlns:xlink="http://www.w3.org/1999/xlink" width="500" zoomAndPan="magnify" viewBox="0 0 375 374.999991" height="500" preserveAspectRatio="xMidYMid meet" version="1.0"><defs><g/></defs><g fill="#832b00" fill-opacity="1"><g transform="translate(50.253029, 199.035426)"><g><path d="M 7.40625 -24.03125 C 8.414062 -28.695312 9.90625 -32.765625 11.875 -36.234375 C 13.84375 -39.710938 16.289062 -42.4375 19.21875 -44.40625 C 21.875 -46.195312 24.695312 -47.363281 27.6875 -47.90625 C 30.6875 -48.457031 33.992188 -48.734375 37.609375 -48.734375 C 41.410156 -48.734375 44.132812 -48.023438 45.78125 -46.609375 C 47.425781 -45.191406 48.25 -43.453125 48.25 -41.390625 C 48.25 -40.703125 48.179688 -40.015625 48.046875 -39.328125 C 47.679688 -37.640625 46.867188 -36.269531 45.609375 -35.21875 C 44.347656 -34.164062 42.847656 -33.640625 41.109375 -33.640625 C 39.691406 -33.640625 38.5625 -34.023438 37.71875 -34.796875 C 36.875 -35.578125 36.453125 -36.609375 36.453125 -37.890625 C 36.453125 -38.390625 36.519531 -38.867188 36.65625 -39.328125 C 37.019531 -41.066406 37.84375 -42.472656 39.125 -43.546875 C 40.40625 -44.628906 41.894531 -45.171875 43.59375 -45.171875 C 45.28125 -45.171875 46.46875 -44.570312 47.15625 -43.375 C 46.695312 -44.707031 45.703125 -45.816406 44.171875 -46.703125 C 42.640625 -47.597656 40.410156 -48.046875 37.484375 -48.046875 C 34.828125 -48.046875 32.238281 -47.347656 29.71875 -45.953125 C 27.207031 -44.554688 24.941406 -42.195312 22.921875 -38.875 C 20.910156 -35.5625 19.285156 -31.046875 18.046875 -25.328125 C 17.679688 -23.492188 17.40625 -21.773438 17.21875 -20.171875 C 17.039062 -18.578125 16.953125 -17.113281 16.953125 -15.78125 C 16.953125 -12.351562 17.476562 -9.644531 18.53125 -7.65625 C 19.582031 -5.664062 21 -4.234375 22.78125 -3.359375 C 24.570312 -2.492188 26.539062 -2.0625 28.6875 -2.0625 C 30.332031 -2.0625 31.757812 -2.148438 32.96875 -2.328125 C 34.1875 -2.515625 35.378906 -2.8125 36.546875 -3.21875 C 37.710938 -3.632812 39.050781 -4.207031 40.5625 -4.9375 L 40.421875 -4.25 C 38.867188 -3.15625 36.695312 -2.054688 33.90625 -0.953125 C 31.113281 0.140625 27.613281 0.6875 23.40625 0.6875 C 17.863281 0.6875 13.640625 -0.601562 10.734375 -3.1875 C 7.835938 -5.769531 6.390625 -9.765625 6.390625 -15.171875 C 6.390625 -17.773438 6.726562 -20.726562 7.40625 -24.03125 Z M 7.40625 -24.03125 "/></g></g></g><g fill="#832b00" fill-opacity="1"><g transform="translate(90.267708, 199.035426)"><g><path d="M 11.328125 -48.046875 L 27.65625 -48.046875 L 27.53125 -47.359375 C 26.25 -47.359375 25.378906 -47.175781 24.921875 -46.8125 C 24.460938 -46.445312 24.09375 -45.625 23.8125 -44.34375 L 19.625 -24.4375 L 34.53125 -24.4375 L 38.71875 -44.34375 C 38.800781 -44.707031 38.863281 -45.015625 38.90625 -45.265625 C 38.957031 -45.515625 38.984375 -45.734375 38.984375 -45.921875 C 38.984375 -46.515625 38.789062 -46.898438 38.40625 -47.078125 C 38.019531 -47.265625 37.367188 -47.359375 36.453125 -47.359375 L 36.578125 -48.046875 L 52.921875 -48.046875 L 52.78125 -47.359375 C 51.5 -47.359375 50.628906 -47.175781 50.171875 -46.8125 C 49.710938 -46.445312 49.347656 -45.625 49.078125 -44.34375 L 40.421875 -3.640625 C 40.285156 -3.046875 40.21875 -2.539062 40.21875 -2.125 C 40.21875 -1.53125 40.410156 -1.140625 40.796875 -0.953125 C 41.191406 -0.773438 41.867188 -0.6875 42.828125 -0.6875 L 42.6875 0 L 26.359375 0 L 26.5 -0.6875 C 27.78125 -0.6875 28.632812 -0.867188 29.0625 -1.234375 C 29.5 -1.597656 29.832031 -2.398438 30.0625 -3.640625 L 34.390625 -23.75 L 19.5 -23.75 L 15.171875 -3.640625 C 15.035156 -3.046875 14.96875 -2.539062 14.96875 -2.125 C 14.96875 -1.53125 15.160156 -1.140625 15.546875 -0.953125 C 15.929688 -0.773438 16.609375 -0.6875 17.578125 -0.6875 L 17.4375 0 L 1.09375 0 L 1.234375 -0.6875 C 2.515625 -0.6875 3.382812 -0.867188 3.84375 -1.234375 C 4.300781 -1.597656 4.644531 -2.398438 4.875 -3.640625 L 13.515625 -44.34375 C 13.660156 -44.976562 13.734375 -45.503906 13.734375 -45.921875 C 13.734375 -46.515625 13.535156 -46.898438 13.140625 -47.078125 C 12.753906 -47.265625 12.101562 -47.359375 11.1875 -47.359375 Z M 11.328125 -48.046875 "/></g></g></g><g fill="#832b00" fill-opacity="1"><g transform="translate(132.066945, 199.035426)"><g><path d="M 11.328125 -48.046875 L 27.65625 -48.046875 L 27.53125 -47.359375 C 26.25 -47.359375 25.378906 -47.175781 24.921875 -46.8125 C 24.460938 -46.445312 24.09375 -45.625 23.8125 -44.34375 L 15.171875 -3.640625 C 15.035156 -3.046875 14.96875 -2.539062 14.96875 -2.125 C 14.96875 -1.53125 15.160156 -1.140625 15.546875 -0.953125 C 15.929688 -0.773438 16.609375 -0.6875 17.578125 -0.6875 L 17.4375 0 L 1.09375 0 L 1.234375 -0.6875 C 2.515625 -0.6875 3.382812 -0.867188 3.84375 -1.234375 C 4.300781 -1.597656 4.644531 -2.398438 4.875 -3.640625 L 13.515625 -44.34375 C 13.660156 -44.976562 13.734375 -45.503906 13.734375 -45.921875 C 13.734375 -46.515625 13.535156 -46.898438 13.140625 -47.078125 C 12.753906 -47.265625 12.101562 -47.359375 11.1875 -47.359375 Z M 11.328125 -48.046875 "/></g></g></g><g fill="#832b00" fill-opacity="1"><g transform="translate(148.607897, 199.035426)"><g><path d="M 7.40625 -24.03125 C 8.414062 -28.695312 9.90625 -32.765625 11.875 -36.234375 C 13.84375 -39.710938 16.289062 -42.4375 19.21875 -44.40625 C 21.875 -46.195312 24.695312 -47.363281 27.6875 -47.90625 C 30.6875 -48.457031 33.992188 -48.734375 37.609375 -48.734375 C 41.410156 -48.734375 44.132812 -48.023438 45.78125 -46.609375 C 47.425781 -45.191406 48.25 -43.453125 48.25 -41.390625 C 48.25 -40.703125 48.179688 -40.015625 48.046875 -39.328125 C 47.679688 -37.640625 46.867188 -36.269531 45.609375 -35.21875 C 44.347656 -34.164062 42.847656 -33.640625 41.109375 -33.640625 C 39.691406 -33.640625 38.5625 -34.023438 37.71875 -34.796875 C 36.875 -35.578125 36.453125 -36.609375 36.453125 -37.890625 C 36.453125 -38.390625 36.519531 -38.867188 36.65625 -39.328125 C 37.019531 -41.066406 37.84375 -42.472656 39.125 -43.546875 C 40.40625 -44.628906 41.894531 -45.171875 43.59375 -45.171875 C 45.28125 -45.171875 46.46875 -44.570312 47.15625 -43.375 C 46.695312 -44.707031 45.703125 -45.816406 44.171875 -46.703125 C 42.640625 -47.597656 40.410156 -48.046875 37.484375 -48.046875 C 34.828125 -48.046875 32.238281 -47.347656 29.71875 -45.953125 C 27.207031 -44.554688 24.941406 -42.195312 22.921875 -38.875 C 20.910156 -35.5625 19.285156 -31.046875 18.046875 -25.328125 C 17.679688 -23.492188 17.40625 -21.773438 17.21875 -20.171875 C 17.039062 -18.578125 16.953125 -17.113281 16.953125 -15.78125 C 16.953125 -12.351562 17.476562 -9.644531 18.53125 -7.65625 C 19.582031 -5.664062 21 -4.234375 22.78125 -3.359375 C 24.570312 -2.492188 26.539062 -2.0625 28.6875 -2.0625 C 30.332031 -2.0625 31.757812 -2.148438 32.96875 -2.328125 C 34.1875 -2.515625 35.378906 -2.8125 36.546875 -3.21875 C 37.710938 -3.632812 39.050781 -4.207031 40.5625 -4.9375 L 40.421875 -4.25 C 38.867188 -3.15625 36.695312 -2.054688 33.90625 -0.953125 C 31.113281 0.140625 27.613281 0.6875 23.40625 0.6875 C 17.863281 0.6875 13.640625 -0.601562 10.734375 -3.1875 C 7.835938 -5.769531 6.390625 -9.765625 6.390625 -15.171875 C 6.390625 -17.773438 6.726562 -20.726562 7.40625 -24.03125 Z M 7.40625 -24.03125 "/></g></g></g><g fill="#832b00" fill-opacity="1"><g transform="translate(188.622573, 199.035426)"><g><path d="M 11.328125 -48.046875 L 27.65625 -48.046875 L 27.53125 -47.359375 C 26.25 -47.359375 25.378906 -47.175781 24.921875 -46.8125 C 24.460938 -46.445312 24.09375 -45.625 23.8125 -44.34375 L 19.625 -24.4375 L 34.53125 -24.4375 L 38.71875 -44.34375 C 38.800781 -44.707031 38.863281 -45.015625 38.90625 -45.265625 C 38.957031 -45.515625 38.984375 -45.734375 38.984375 -45.921875 C 38.984375 -46.515625 38.789062 -46.898438 38.40625 -47.078125 C 38.019531 -47.265625 37.367188 -47.359375 36.453125 -47.359375 L 36.578125 -48.046875 L 52.921875 -48.046875 L 52.78125 -47.359375 C 51.5 -47.359375 50.628906 -47.175781 50.171875 -46.8125 C 49.710938 -46.445312 49.347656 -45.625 49.078125 -44.34375 L 40.421875 -3.640625 C 40.285156 -3.046875 40.21875 -2.539062 40.21875 -2.125 C 40.21875 -1.53125 40.410156 -1.140625 40.796875 -0.953125 C 41.191406 -0.773438 41.867188 -0.6875 42.828125 -0.6875 L 42.6875 0 L 26.359375 0 L 26.5 -0.6875 C 27.78125 -0.6875 28.632812 -0.867188 29.0625 -1.234375 C 29.5 -1.597656 29.832031 -2.398438 30.0625 -3.640625 L 34.390625 -23.75 L 19.5 -23.75 L 15.171875 -3.640625 C 15.035156 -3.046875 14.96875 -2.539062 14.96875 -2.125 C 14.96875 -1.53125 15.160156 -1.140625 15.546875 -0.953125 C 15.929688 -0.773438 16.609375 -0.6875 17.578125 -0.6875 L 17.4375 0 L 1.09375 0 L 1.234375 -0.6875 C 2.515625 -0.6875 3.382812 -0.867188 3.84375 -1.234375 C 4.300781 -1.597656 4.644531 -2.398438 4.875 -3.640625 L 13.515625 -44.34375 C 13.660156 -44.976562 13.734375 -45.503906 13.734375 -45.921875 C 13.734375 -46.515625 13.535156 -46.898438 13.140625 -47.078125 C 12.753906 -47.265625 12.101562 -47.359375 11.1875 -47.359375 Z M 11.328125 -48.046875 "/></g></g></g><g fill="#832b00" fill-opacity="1"><g transform="translate(230.421806, 199.035426)"><g><path d="M 11.328125 -48.046875 L 27.65625 -48.046875 L 27.53125 -47.359375 C 26.25 -47.359375 25.378906 -47.175781 24.921875 -46.8125 C 24.460938 -46.445312 24.09375 -45.625 23.8125 -44.34375 L 15.171875 -3.640625 C 15.035156 -3.046875 14.96875 -2.539062 14.96875 -2.125 C 14.96875 -1.53125 15.160156 -1.140625 15.546875 -0.953125 C 15.929688 -0.773438 16.609375 -0.6875 17.578125 -0.6875 L 17.4375 0 L 1.09375 0 L 1.234375 -0.6875 C 2.515625 -0.6875 3.382812 -0.867188 3.84375 -1.234375 C 4.300781 -1.597656 4.644531 -2.398438 4.875 -3.640625 L 13.515625 -44.34375 C 13.660156 -44.976562 13.734375 -45.503906 13.734375 -45.921875 C 13.734375 -46.515625 13.535156 -46.898438 13.140625 -47.078125 C 12.753906 -47.265625 12.101562 -47.359375 11.1875 -47.359375 Z M 11.328125 -48.046875 "/></g></g></g><g fill="#ef9056" fill-opacity="1"><g transform="translate(246.963954, 199.035426)"><g><path d="M 24.5 -47.359375 L 19.625 -24.4375 L 28.625 -24.4375 C 30.632812 -24.4375 32.460938 -24.9375 34.109375 -25.9375 C 35.753906 -26.945312 36.851562 -28.78125 37.40625 -31.4375 L 38.09375 -31.4375 L 34.9375 -16.609375 L 34.25 -16.609375 C 34.34375 -16.972656 34.410156 -17.335938 34.453125 -17.703125 C 34.503906 -18.078125 34.53125 -18.421875 34.53125 -18.734375 C 34.53125 -20.566406 33.945312 -21.835938 32.78125 -22.546875 C 31.613281 -23.253906 30.160156 -23.609375 28.421875 -23.609375 L 19.421875 -23.609375 L 15.171875 -3.5625 C 15.035156 -2.96875 14.96875 -2.488281 14.96875 -2.125 C 14.96875 -1.53125 15.160156 -1.140625 15.546875 -0.953125 C 15.929688 -0.773438 16.609375 -0.6875 17.578125 -0.6875 L 17.4375 0 L 1.09375 0 L 1.234375 -0.6875 C 2.515625 -0.6875 3.375 -0.859375 3.8125 -1.203125 C 4.25 -1.546875 4.601562 -2.332031 4.875 -3.5625 L 13.515625 -44.34375 C 13.660156 -44.976562 13.734375 -45.503906 13.734375 -45.921875 C 13.734375 -46.515625 13.535156 -46.898438 13.140625 -47.078125 C 12.753906 -47.265625 12.101562 -47.359375 11.1875 -47.359375 L 11.328125 -48.046875 L 46.875 -48.046875 L 44.140625 -35.140625 L 43.453125 -35.140625 C 43.722656 -36.515625 43.859375 -37.726562 43.859375 -38.78125 C 43.859375 -41.84375 42.757812 -44.035156 40.5625 -45.359375 C 38.363281 -46.691406 35.046875 -47.359375 30.609375 -47.359375 Z M 24.5 -47.359375 "/></g></g></g><g fill="#ef9056" fill-opacity="1"><g transform="translate(283.134986, 199.035426)"><g><path d="M 10.90625 -48.046875 L 31.5 -48.046875 L 31.375 -47.359375 C 29.71875 -47.359375 28.46875 -46.945312 27.625 -46.125 C 26.78125 -45.300781 26.359375 -44.203125 26.359375 -42.828125 C 26.359375 -42.597656 26.367188 -42.359375 26.390625 -42.109375 C 26.410156 -41.859375 26.445312 -41.597656 26.5 -41.328125 L 30.265625 -19.21875 L 42.765625 -40.5 C 43.859375 -42.28125 44.40625 -43.722656 44.40625 -44.828125 C 44.40625 -46.515625 43.078125 -47.359375 40.421875 -47.359375 L 40.5625 -48.046875 L 51.34375 -48.046875 L 51.203125 -47.359375 C 49.785156 -47.359375 48.675781 -47.035156 47.875 -46.390625 C 47.070312 -45.753906 46.171875 -44.707031 45.171875 -43.25 L 29.71875 -17.15625 L 26.703125 -3.640625 C 26.566406 -2.953125 26.5 -2.425781 26.5 -2.0625 C 26.5 -1.507812 26.679688 -1.140625 27.046875 -0.953125 C 27.410156 -0.773438 28.050781 -0.6875 28.96875 -0.6875 L 28.828125 0 L 12.5 0 L 12.625 -0.6875 C 13.90625 -0.6875 14.773438 -0.867188 15.234375 -1.234375 C 15.691406 -1.597656 16.035156 -2.398438 16.265625 -3.640625 L 19.28125 -17.78125 L 14.828125 -43.71875 C 14.554688 -44.957031 14.132812 -45.875 13.5625 -46.46875 C 12.988281 -47.0625 12.0625 -47.359375 10.78125 -47.359375 Z M 10.90625 -48.046875 "/></g></g></g><g fill="#832b00" fill-opacity="1"><g transform="translate(235.375886, 209.724243)"><g><path d="M 5.171875 -5.28125 L 3.25 0 L 2.078125 0 L 0.140625 -5.28125 L 1.234375 -5.28125 L 2.6875 -1.0625 L 4.125 -5.28125 Z M 5.171875 -5.28125 "/></g></g></g><g fill="#832b00" fill-opacity="1"><g transform="translate(241.628404, 209.724243)"><g><path d="M 0.71875 -5.28125 L 1.71875 -5.28125 L 1.71875 0 L 0.71875 0 Z M 0.71875 -5.28125 "/></g></g></g><g fill="#832b00" fill-opacity="1"><g transform="translate(244.997477, 209.724243)"><g><path d="M 3.9375 -2.75 C 4.207031 -2.632812 4.414062 -2.46875 4.5625 -2.25 C 4.707031 -2.039062 4.78125 -1.785156 4.78125 -1.484375 C 4.78125 -1.003906 4.601562 -0.632812 4.25 -0.375 C 3.90625 -0.125 3.398438 0 2.734375 0 L 0.78125 0 L 0.78125 -5.28125 L 2.828125 -5.28125 C 3.398438 -5.28125 3.835938 -5.160156 4.140625 -4.921875 C 4.453125 -4.679688 4.609375 -4.335938 4.609375 -3.890625 C 4.609375 -3.359375 4.382812 -2.976562 3.9375 -2.75 Z M 1.78125 -4.40625 L 1.78125 -3.140625 L 2.734375 -3.140625 C 3.003906 -3.140625 3.207031 -3.195312 3.34375 -3.3125 C 3.476562 -3.425781 3.546875 -3.585938 3.546875 -3.796875 C 3.546875 -4.023438 3.488281 -4.179688 3.375 -4.265625 C 3.257812 -4.359375 3.046875 -4.40625 2.734375 -4.40625 Z M 2.734375 -0.890625 C 3.085938 -0.890625 3.335938 -0.941406 3.484375 -1.046875 C 3.640625 -1.148438 3.71875 -1.328125 3.71875 -1.578125 C 3.71875 -1.816406 3.640625 -1.988281 3.484375 -2.09375 C 3.328125 -2.207031 3.078125 -2.265625 2.734375 -2.265625 L 1.78125 -2.265625 L 1.78125 -0.890625 Z M 2.734375 -0.890625 "/></g></g></g><g fill="#832b00" fill-opacity="1"><g transform="translate(251.249995, 209.724243)"><g><path d="M 1.78125 -4.40625 L 1.78125 -3.078125 L 4.0625 -3.078125 L 4.0625 -2.25 L 1.78125 -2.25 L 1.78125 -0.875 L 4.234375 -0.875 L 4.234375 0 L 0.78125 0 L 0.78125 -5.28125 L 4.234375 -5.28125 L 4.234375 -4.40625 Z M 1.78125 -4.40625 "/></g></g></g><g fill="#832b00" fill-opacity="1"><g transform="translate(257.047233, 209.724243)"><g/></g></g><g fill="#832b00" fill-opacity="1"><g transform="translate(260.11279, 209.724243)"><g><path d="M 7.984375 -5.28125 L 6.3125 0 L 5.15625 0 L 4.03125 -3.796875 L 2.90625 0 L 1.734375 0 L 0.0625 -5.28125 L 1.15625 -5.28125 L 2.328125 -1.21875 L 3.5 -5.28125 L 4.59375 -5.28125 L 5.75 -1.21875 L 6.9375 -5.28125 Z M 7.984375 -5.28125 "/></g></g></g><g fill="#832b00" fill-opacity="1"><g transform="translate(269.096998, 209.724243)"><g><path d="M 0.71875 -5.28125 L 1.71875 -5.28125 L 1.71875 0 L 0.71875 0 Z M 0.71875 -5.28125 "/></g></g></g><g fill="#832b00" fill-opacity="1"><g transform="translate(272.466071, 209.724243)"><g><path d="M 1.921875 -4.359375 L 0.421875 -4.359375 L 0.421875 -5.28125 L 4.4375 -5.28125 L 4.4375 -4.359375 L 2.9375 -4.359375 L 2.9375 0 L 1.921875 0 Z M 1.921875 -4.359375 "/></g></g></g><g fill="#832b00" fill-opacity="1"><g transform="translate(278.263312, 209.724243)"><g><path d="M 5.296875 -5.28125 L 5.296875 0 L 4.296875 0 L 4.296875 -2.328125 L 1.78125 -2.328125 L 1.78125 0 L 0.78125 0 L 0.78125 -5.28125 L 1.78125 -5.28125 L 1.78125 -3.21875 L 4.296875 -3.21875 L 4.296875 -5.28125 Z M 5.296875 -5.28125 "/></g></g></g><g fill="#832b00" fill-opacity="1"><g transform="translate(285.274633, 209.724243)"><g/></g></g><g fill="#ef9056" fill-opacity="1"><g transform="translate(288.343436, 209.724243)"><g><path d="M 3.390625 0.09375 C 2.804688 0.09375 2.304688 -0.015625 1.890625 -0.234375 C 1.472656 -0.460938 1.148438 -0.78125 0.921875 -1.1875 C 0.703125 -1.601562 0.59375 -2.085938 0.59375 -2.640625 C 0.59375 -3.191406 0.703125 -3.671875 0.921875 -4.078125 C 1.148438 -4.492188 1.476562 -4.8125 1.90625 -5.03125 C 2.332031 -5.257812 2.84375 -5.375 3.4375 -5.375 C 3.675781 -5.375 3.914062 -5.347656 4.15625 -5.296875 C 4.40625 -5.253906 4.625 -5.1875 4.8125 -5.09375 L 4.8125 -4.15625 L 4.78125 -4.15625 C 4.59375 -4.269531 4.382812 -4.351562 4.15625 -4.40625 C 3.925781 -4.46875 3.710938 -4.5 3.515625 -4.5 C 2.941406 -4.5 2.488281 -4.335938 2.15625 -4.015625 C 1.820312 -3.691406 1.65625 -3.234375 1.65625 -2.640625 C 1.65625 -2.046875 1.816406 -1.585938 2.140625 -1.265625 C 2.460938 -0.953125 2.90625 -0.796875 3.46875 -0.796875 C 3.6875 -0.796875 3.90625 -0.828125 4.125 -0.890625 C 4.351562 -0.960938 4.570312 -1.0625 4.78125 -1.1875 L 4.8125 -1.1875 L 4.8125 -0.265625 C 4.40625 -0.0234375 3.929688 0.09375 3.390625 0.09375 Z M 3.390625 0.09375 "/></g></g></g><g fill="#ef9056" fill-opacity="1"><g transform="translate(294.747716, 209.724243)"><g><path d="M 5.296875 -5.28125 L 5.296875 0 L 4.296875 0 L 4.296875 -2.328125 L 1.78125 -2.328125 L 1.78125 0 L 0.78125 0 L 0.78125 -5.28125 L 1.78125 -5.28125 L 1.78125 -3.21875 L 4.296875 -3.21875 L 4.296875 -5.28125 Z M 5.296875 -5.28125 "/></g></g></g><g fill="#ef9056" fill-opacity="1"><g transform="translate(301.759038, 209.724243)"><g><path d="M 0.71875 -5.28125 L 1.71875 -5.28125 L 1.71875 0 L 0.71875 0 Z M 0.71875 -5.28125 "/></g></g></g><g fill="#ef9056" fill-opacity="1"><g transform="translate(305.128112, 209.724243)"><g><path d="M 3.390625 0.09375 C 2.804688 0.09375 2.304688 -0.015625 1.890625 -0.234375 C 1.472656 -0.460938 1.148438 -0.78125 0.921875 -1.1875 C 0.703125 -1.601562 0.59375 -2.085938 0.59375 -2.640625 C 0.59375 -3.191406 0.703125 -3.671875 0.921875 -4.078125 C 1.148438 -4.492188 1.476562 -4.8125 1.90625 -5.03125 C 2.332031 -5.257812 2.84375 -5.375 3.4375 -5.375 C 3.675781 -5.375 3.914062 -5.347656 4.15625 -5.296875 C 4.40625 -5.253906 4.625 -5.1875 4.8125 -5.09375 L 4.8125 -4.15625 L 4.78125 -4.15625 C 4.59375 -4.269531 4.382812 -4.351562 4.15625 -4.40625 C 3.925781 -4.46875 3.710938 -4.5 3.515625 -4.5 C 2.941406 -4.5 2.488281 -4.335938 2.15625 -4.015625 C 1.820312 -3.691406 1.65625 -3.234375 1.65625 -2.640625 C 1.65625 -2.046875 1.816406 -1.585938 2.140625 -1.265625 C 2.460938 -0.953125 2.90625 -0.796875 3.46875 -0.796875 C 3.6875 -0.796875 3.90625 -0.828125 4.125 -0.890625 C 4.351562 -0.960938 4.570312 -1.0625 4.78125 -1.1875 L 4.8125 -1.1875 L 4.8125 -0.265625 C 4.40625 -0.0234375 3.929688 0.09375 3.390625 0.09375 Z M 3.390625 0.09375 "/></g></g></g><g fill="#ef9056" fill-opacity="1"><g transform="translate(311.532391, 209.724243)"><g><path d="M 5.296875 -5.28125 L 5.296875 0 L 4.296875 0 L 4.296875 -2.328125 L 1.78125 -2.328125 L 1.78125 0 L 0.78125 0 L 0.78125 -5.28125 L 1.78125 -5.28125 L 1.78125 -3.21875 L 4.296875 -3.21875 L 4.296875 -5.28125 Z M 5.296875 -5.28125 "/></g></g></g><g fill="#ef9056" fill-opacity="1"><g transform="translate(318.543713, 209.724243)"><g><path d="M 0.71875 -5.28125 L 1.71875 -5.28125 L 1.71875 0 L 0.71875 0 Z M 0.71875 -5.28125 "/></g></g></g><g fill="#ef9056" fill-opacity="1"><g transform="translate(321.912785, 209.724243)"><g><path d="M 1.78125 -4.40625 L 1.78125 -3 L 3.75 -3 L 3.75 -2.171875 L 1.78125 -2.171875 L 1.78125 0 L 0.78125 0 L 0.78125 -5.28125 L 4.25 -5.28125 L 4.25 -4.40625 Z M 1.78125 -4.40625 "/></g></g></g><g fill="#ef9056" fill-opacity="1"><g transform="translate(327.406508, 209.724243)"><g><path d="M 4.921875 -5.28125 L 3 -1.828125 L 3 0 L 2 0 L 2 -1.828125 L 0.078125 -5.28125 L 1.15625 -5.28125 L 2.515625 -2.71875 L 3.890625 -5.28125 Z M 4.921875 -5.28125 "/></g></g></g></svg>